<svg width="66" height="72" viewBox="0 0 66 72" fill="none" xmlns="http://www.w3.org/2000/svg">
<path d="M59.1335 58.8497L39.4709 70.1686C37.4554 71.3673 35.1538 72 32.8088 72C30.4639 72 28.1623 71.3673 26.1468 70.1686L6.46798 58.8497C4.5095 57.6206 2.89103 55.9195 1.76094 53.9023C0.630853 51.8851 0.0253361 49.6164 0 47.3043V24.6664C0.0272569 22.3344 0.654524 20.0487 1.82134 18.0294C2.98816 16.0102 4.65525 14.3253 6.66206 13.1372L26.3409 1.81825C28.3592 0.627855 30.6596 0 33.0029 0C35.3461 0 37.6465 0.627855 39.6649 1.81825L59.3276 13.1372C61.3344 14.3253 63.0015 16.0102 64.1683 18.0294C65.3351 20.0487 65.9624 22.3344 65.9896 24.6664V47.3043C65.8939 49.6464 65.2171 51.9278 64.0203 53.9432C62.8235 55.9587 61.1441 57.6448 59.1335 58.8497Z" fill="#D2E6FB"/>
<path d="M42.0001 32.0001C42.0001 26.9401 37.8201 22.8501 32.7201 23.0001C27.9201 23.1501 23.9801 27.2301 24.0001 32.0301C24.0101 34.9201 25.3801 37.4801 27.5101 39.1201C28.4701 39.8601 29.0001 41.0201 29.0001 42.2301V46.0001H37.0001V42.2301C37.0001 40.9901 37.5901 39.8301 38.5601 39.0701C40.6501 37.4201 42.0001 34.8701 42.0001 32.0101V32.0001Z" stroke="#0D1117" stroke-width="2" stroke-linecap="round" stroke-linejoin="round"/>
<path d="M29 42.23H37" stroke="#0D1117" stroke-width="2" stroke-linecap="round" stroke-linejoin="round"/>
<path d="M36 46C36 47.66 34.66 49 33 49C31.34 49 30 47.66 30 46" stroke="#0D1117" stroke-width="2" stroke-linecap="round" stroke-linejoin="round"/>
<path d="M37 31L33 34V31L29 34" stroke="#0D1117" stroke-width="2" stroke-linecap="round" stroke-linejoin="round"/>
</svg>
