<svg width="66" height="72" viewBox="0 0 66 72" fill="none" xmlns="http://www.w3.org/2000/svg">
<path d="M59.1335 58.8497L39.4709 70.1686C37.4554 71.3673 35.1538 72 32.8088 72C30.4639 72 28.1623 71.3673 26.1468 70.1686L6.46798 58.8497C4.5095 57.6206 2.89103 55.9195 1.76094 53.9023C0.630853 51.8851 0.0253361 49.6164 0 47.3043V24.6664C0.0272569 22.3344 0.654524 20.0487 1.82134 18.0294C2.98816 16.0102 4.65525 14.3253 6.66206 13.1372L26.3409 1.81825C28.3592 0.627855 30.6596 0 33.0029 0C35.3461 0 37.6465 0.627855 39.6649 1.81825L59.3276 13.1372C61.3344 14.3253 63.0015 16.0102 64.1683 18.0294C65.3351 20.0487 65.9624 22.3344 65.9896 24.6664V47.3043C65.8939 49.6464 65.2171 51.9278 64.0203 53.9432C62.8235 55.9587 61.1441 57.6448 59.1335 58.8497Z" fill="#D9CDF2"/>
<g clip-path="url(#clip0_661_15311)">
<path d="M32.48 23.9697L47.97 33.4497L33.45 41.9697L17.97 32.4797L32.48 23.9697Z" stroke="#0D1117" stroke-width="2" stroke-linecap="round" stroke-linejoin="round"/>
<path d="M22.8201 36.3799V43.0099L30.3001 47.5899C32.1901 48.7499 34.5601 48.7699 36.4701 47.6499L43.2601 43.6699V36.3799" stroke="#0D1117" stroke-width="2" stroke-linecap="round" stroke-linejoin="round"/>
<path d="M46.97 46.9697C48.0745 46.9697 48.97 46.0743 48.97 44.9697C48.97 43.8652 48.0745 42.9697 46.97 42.9697C45.8654 42.9697 44.97 43.8652 44.97 44.9697C44.97 46.0743 45.8654 46.9697 46.97 46.9697Z" fill="#0D1117"/>
<path d="M46.97 33.4502V44.9702" stroke="#0D1117" stroke-width="2" stroke-linecap="round" stroke-linejoin="round"/>
</g>
<defs>
<clipPath id="clip0_661_15311">
<rect width="32" height="32" fill="white" transform="translate(17 20)"/>
</clipPath>
</defs>
</svg>
