<svg width="66" height="72" viewBox="0 0 66 72" fill="none" xmlns="http://www.w3.org/2000/svg">
<path d="M59.1335 58.8497L39.4709 70.1686C37.4554 71.3673 35.1538 72 32.8088 72C30.4639 72 28.1623 71.3673 26.1468 70.1686L6.46798 58.8497C4.5095 57.6206 2.89103 55.9195 1.76094 53.9023C0.630853 51.8851 0.0253361 49.6164 0 47.3043V24.6664C0.0272569 22.3344 0.654524 20.0487 1.82134 18.0294C2.98816 16.0102 4.65525 14.3253 6.66206 13.1372L26.3409 1.81825C28.3592 0.627855 30.6596 0 33.0029 0C35.3461 0 37.6465 0.627855 39.6649 1.81825L59.3276 13.1372C61.3344 14.3253 63.0015 16.0102 64.1683 18.0294C65.3351 20.0487 65.9624 22.3344 65.9896 24.6664V47.3043C65.8939 49.6464 65.2171 51.9278 64.0203 53.9432C62.8235 55.9587 61.1441 57.6448 59.1335 58.8497Z" fill="#FFDEE2"/>
<path d="M36.27 48.87C36.27 48.87 39.01 43.89 39.38 37.2C39.75 30.51 36.87 25.3 32.31 23C27.75 25.3 24.87 30.53 25.24 37.21C25.61 43.89 28.35 48.88 28.35 48.88H36.27V48.87Z" stroke="#0D1117" stroke-width="2" stroke-linecap="round" stroke-linejoin="round"/>
<path d="M26.6799 44.75H37.9399" stroke="#0D1117" stroke-width="2" stroke-linecap="round" stroke-linejoin="round"/>
<path d="M25.21 36.7002L23.49 38.6602C22.4 39.9002 21.87 41.5402 22.03 43.1902L22.56 48.7502L26.18 43.0502" stroke="#0D1117" stroke-width="2" stroke-linecap="round" stroke-linejoin="round"/>
<path d="M39.49 36.7002L41.21 38.6602C42.3 39.9002 42.83 41.5402 42.67 43.1902L42.14 48.7502L38.52 43.0502" stroke="#0D1117" stroke-width="2" stroke-linecap="round" stroke-linejoin="round"/>
<path d="M32.3099 34.3899C33.3482 34.3899 34.1899 33.5482 34.1899 32.5099C34.1899 31.4716 33.3482 30.6299 32.3099 30.6299C31.2716 30.6299 30.4299 31.4716 30.4299 32.5099C30.4299 33.5482 31.2716 34.3899 32.3099 34.3899Z" stroke="#0D1117" stroke-width="2" stroke-linecap="round" stroke-linejoin="round"/>
<path d="M32.3101 40.3701V44.7501" stroke="#0D1117" stroke-width="2" stroke-linecap="round" stroke-linejoin="round"/>
</svg>
